<svg width="89" height="17" viewBox="0 0 89 17" fill="none" xmlns="http://www.w3.org/2000/svg">
<path d="M2.44802 5.53131e-05V6.38406L8.64002 5.53131e-05H11.856L4.63202 7.24806L11.904 16.0081H8.64002L2.92802 8.90406L2.44802 9.38406V16.0081H1.72257e-05V5.53131e-05H2.44802ZM13.7685 7.15206C14.8085 6.14406 16.0965 5.64006 17.6325 5.64006C19.1685 5.64006 20.4485 6.14406 21.4725 7.15206C22.5125 8.14406 23.0325 9.41606 23.0325 10.9681C23.0325 12.5041 22.5125 13.7841 21.4725 14.8081C20.4485 15.8161 19.1685 16.3201 17.6325 16.3201C16.0965 16.3201 14.8085 15.8161 13.7685 14.8081C12.7445 13.7841 12.2325 12.5041 12.2325 10.9681C12.2325 9.41606 12.7445 8.14406 13.7685 7.15206ZM15.4485 13.3441C15.9925 13.9201 16.7205 14.2081 17.6325 14.2081C18.5445 14.2081 19.2725 13.9201 19.8165 13.3441C20.3605 12.7521 20.6325 11.9681 20.6325 10.9921C20.6325 9.92006 20.3365 9.11206 19.7445 8.56806C19.1685 8.02406 18.4645 7.75206 17.6325 7.75206C16.8005 7.75206 16.0885 8.02406 15.4965 8.56806C14.9205 9.11206 14.6325 9.92006 14.6325 10.9921C14.6325 11.9681 14.9045 12.7521 15.4485 13.3441ZM25.3671 16.0081V5.90406H27.7191V9.64806H31.8951V5.90406H34.2471V16.0081H31.8951V11.8081H27.7191V16.0081H25.3671ZM44.0665 8.06406H41.1145V16.0081H38.7625V8.06406H35.8105V5.90406H44.0665V8.06406ZM52.7691 7.08006V5.90406H55.1211V16.0081H52.7691V14.9521C51.9851 15.8641 50.9771 16.3201 49.7451 16.3201C48.2571 16.3201 47.0651 15.7921 46.1691 14.7361C45.2891 13.6801 44.8491 12.4161 44.8491 10.9441C44.8491 9.34406 45.3211 8.06406 46.2651 7.10406C47.2251 6.12806 48.3931 5.64006 49.7691 5.64006C51.0331 5.64006 52.0331 6.12006 52.7691 7.08006ZM50.0571 7.75206C49.2251 7.75206 48.5451 8.06406 48.0171 8.68806C47.5051 9.31206 47.2491 10.0801 47.2491 10.9921C47.2491 11.8881 47.5051 12.6481 48.0171 13.2721C48.5451 13.8961 49.2251 14.2081 50.0571 14.2081C50.8571 14.2081 51.5291 13.9281 52.0731 13.3681C52.6331 12.8081 52.9131 12.0241 52.9131 11.0161C52.9131 9.97606 52.6331 9.17606 52.0731 8.61606C51.5291 8.04006 50.8571 7.75206 50.0571 7.75206ZM57.9836 5.90406H60.3356V9.50406L63.6956 5.90406H66.8156L62.3996 10.3201L67.0556 16.0081H64.0796L60.7196 11.8561L60.3356 12.2401V16.0081H57.9836V5.90406ZM75.6752 8.06406H72.7232V16.0081H70.3712V8.06406H67.4192V5.90406H75.6752V8.06406ZM77.2436 16.0081V5.90406H79.5956V9.48006H80.9396C81.3716 9.48006 81.7236 9.49606 81.9956 9.52806C82.2676 9.54406 82.5956 9.63206 82.9796 9.79206C83.3636 9.95206 83.6996 10.1921 83.9876 10.5121C84.5156 11.1041 84.7796 11.8401 84.7796 12.7201C84.7796 13.7281 84.4756 14.5361 83.8676 15.1441C83.5956 15.4161 83.2676 15.6241 82.8836 15.7681C82.5156 15.8961 82.2036 15.9681 81.9476 15.9841C81.7076 16.0001 81.3636 16.0081 80.9156 16.0081H77.2436ZM79.5956 13.9921H80.6756C81.2516 13.9921 81.6596 13.9201 81.8996 13.7761C82.2516 13.5201 82.4276 13.1761 82.4276 12.7441C82.4276 12.2961 82.2596 11.9601 81.9236 11.7361C81.6676 11.5761 81.2596 11.4961 80.6996 11.4961H79.5956V13.9921ZM85.8356 16.0081V5.90406H88.1876V16.0081H85.8356Z" fill="#777777"/>
</svg>
