<svg width="122" height="23" viewBox="0 0 122 23" fill="none" xmlns="http://www.w3.org/2000/svg">
<path d="M3.36599 -1.54972e-05V8.77799L11.88 -1.54972e-05H16.302L6.36899 9.96599L16.368 22.011H11.88L4.02599 12.243L3.36599 12.903V22.011H-1.44616e-05V-1.54972e-05H3.36599ZM18.9317 9.83399C20.3617 8.44799 22.1327 7.75499 24.2447 7.75499C26.3567 7.75499 28.1167 8.44799 29.5247 9.83399C30.9547 11.198 31.6697 12.947 31.6697 15.081C31.6697 17.193 30.9547 18.953 29.5247 20.361C28.1167 21.747 26.3567 22.44 24.2447 22.44C22.1327 22.44 20.3617 21.747 18.9317 20.361C17.5237 18.953 16.8197 17.193 16.8197 15.081C16.8197 12.947 17.5237 11.198 18.9317 9.83399ZM21.2417 18.348C21.9897 19.14 22.9907 19.536 24.2447 19.536C25.4987 19.536 26.4997 19.14 27.2477 18.348C27.9957 17.534 28.3697 16.456 28.3697 15.114C28.3697 13.64 27.9627 12.529 27.1487 11.781C26.3567 11.033 25.3887 10.659 24.2447 10.659C23.1007 10.659 22.1217 11.033 21.3077 11.781C20.5157 12.529 20.1197 13.64 20.1197 15.114C20.1197 16.456 20.4937 17.534 21.2417 18.348ZM34.8797 22.011V8.11799H38.1137V13.266H43.8557V8.11799H47.0897V22.011H43.8557V16.236H38.1137V22.011H34.8797ZM60.5913 11.088H56.5323V22.011H53.2983V11.088H49.2393V8.11799H60.5913V11.088ZM72.5574 9.73499V8.11799H75.7914V22.011H72.5574V20.559C71.4794 21.813 70.0934 22.44 68.3994 22.44C66.3534 22.44 64.7144 21.714 63.4824 20.262C62.2724 18.81 61.6674 17.072 61.6674 15.048C61.6674 12.848 62.3164 11.088 63.6144 9.76799C64.9344 8.42599 66.5404 7.75499 68.4324 7.75499C70.1704 7.75499 71.5454 8.41499 72.5574 9.73499ZM68.8284 10.659C67.6844 10.659 66.7494 11.088 66.0234 11.946C65.3194 12.804 64.9674 13.86 64.9674 15.114C64.9674 16.346 65.3194 17.391 66.0234 18.249C66.7494 19.107 67.6844 19.536 68.8284 19.536C69.9284 19.536 70.8524 19.151 71.6004 18.381C72.3704 17.611 72.7554 16.533 72.7554 15.147C72.7554 13.717 72.3704 12.617 71.6004 11.847C70.8524 11.055 69.9284 10.659 68.8284 10.659ZM79.7275 8.11799H82.9615V13.068L87.5815 8.11799H91.8715L85.7995 14.19L92.2015 22.011H88.1095L83.4895 16.302L82.9615 16.83V22.011H79.7275V8.11799ZM104.053 11.088H99.9944V22.011H96.7604V11.088H92.7014V8.11799H104.053V11.088ZM106.21 22.011V8.11799H109.444V13.035H111.292C111.886 13.035 112.37 13.057 112.744 13.101C113.118 13.123 113.569 13.244 114.097 13.464C114.625 13.684 115.087 14.014 115.483 14.454C116.209 15.268 116.572 16.28 116.572 17.49C116.572 18.876 116.154 19.987 115.318 20.823C114.944 21.197 114.493 21.483 113.965 21.681C113.459 21.857 113.03 21.956 112.678 21.978C112.348 22 111.875 22.011 111.259 22.011H106.21ZM109.444 19.239H110.929C111.721 19.239 112.282 19.14 112.612 18.942C113.096 18.59 113.338 18.117 113.338 17.523C113.338 16.907 113.107 16.445 112.645 16.137C112.293 15.917 111.732 15.807 110.962 15.807H109.444V19.239ZM118.024 22.011V8.11799H121.258V22.011H118.024Z" fill="#777777"/>
</svg>
